<svg width="300" height="100" viewBox="0 0 300 100" fill="none" xmlns="http://www.w3.org/2000/svg">
<path d="M24.6217 78.7782C20.2571 78.7782 16.4029 77.8615 13.0592 76.0282C9.71021 74.1949 7.10604 71.6063 5.24667 68.2574C3.38208 64.9136 2.455 61.0074 2.455 56.549C2.455 52.2313 3.38208 48.4553 5.24667 45.2157C7.10604 41.9657 9.69459 39.424 13.0175 37.5907C16.3352 35.7574 20.205 34.8407 24.6217 34.8407C29.0227 34.8407 32.8821 35.7574 36.205 37.5907C39.5383 39.424 42.1269 41.9657 43.9758 45.2157C45.8352 48.4553 46.7675 52.2313 46.7675 56.549C46.7675 61.0074 45.8508 64.898 44.0175 68.2157C42.1842 71.5386 39.606 74.1272 36.2883 75.9865C32.9654 77.8511 29.08 78.7782 24.6217 78.7782ZM24.6217 68.0699C27.4394 68.0699 29.6685 67.023 31.3092 64.924C32.9446 62.8147 33.7675 60.023 33.7675 56.549C33.7675 53.273 32.9446 50.6063 31.3092 48.549C29.6685 46.4969 27.4394 45.4657 24.6217 45.4657C21.8404 45.4657 19.6008 46.4865 17.8925 48.5282C16.1842 50.5594 15.33 53.2313 15.33 56.549C15.33 60.0647 16.1842 62.8615 17.8925 64.9449C19.6008 67.0282 21.8404 68.0699 24.6217 68.0699Z" fill="black"/>
<path d="M76.2106 77.8824H66.2523C63.1793 77.8824 60.7835 77.1532 59.0648 75.6949C57.3564 74.2261 56.5023 72.1532 56.5023 69.4865V45.4657H50.7106V35.7157H56.5023V21.1532H69.0023V35.7157H76.2939V45.4657H69.0023V65.2365C69.0023 65.8355 69.1481 66.4136 69.4398 66.9657C69.7418 67.5074 70.4398 67.7782 71.5231 67.7782H76.2106V77.8824Z" fill="black"/>
<path d="M95.321 77.8824H82.821V21.1532H95.321V40.2574C96.7481 38.1324 98.347 36.7053 100.113 35.9657C101.873 35.2157 103.868 34.8407 106.092 34.8407C108.868 34.8407 111.16 35.174 112.967 35.8407C114.785 36.5074 116.222 37.4032 117.279 38.5282C118.347 39.6428 119.16 40.8355 119.717 42.1115C120.55 43.9449 121.029 45.7782 121.154 47.6115C121.279 49.4449 121.342 51.6844 121.342 54.3199V77.8824H108.842V54.1532C108.842 52.0855 108.701 50.4449 108.425 49.2365C108.16 48.0178 107.706 47.0803 107.071 46.424C106.071 45.3824 104.535 44.8615 102.467 44.8615C101.175 44.8615 100.055 45.0282 99.1127 45.3615C98.1647 45.6844 97.4252 46.2365 96.8835 47.0282C96.3835 47.7261 95.9929 48.6272 95.7168 49.7365C95.4512 50.8511 95.321 52.3199 95.321 54.1532V77.8824Z" fill="black"/>
<path d="M141.421 78.7782C138.89 78.7782 136.588 78.3042 134.504 77.3615C132.421 76.4188 130.744 75.0074 129.483 73.1324C128.218 71.2469 127.588 68.8928 127.588 66.0699C127.588 63.5438 128.077 61.4605 129.067 59.8199C130.067 58.1844 131.327 56.872 132.858 55.8824C134.343 54.8824 135.973 54.148 137.754 53.674C139.546 53.2053 141.233 52.8199 142.817 52.5282L153.754 50.5907C153.598 48.4657 153.03 46.8355 152.046 45.6949C151.098 44.6949 149.692 44.1949 147.817 44.1949C146.369 44.1949 145.036 44.6844 143.817 45.6532C142.608 46.6115 141.858 47.9865 141.567 49.7782H129.15C129.692 46.2678 130.9 43.4032 132.775 41.1949C134.661 38.9865 136.947 37.3772 139.629 36.3615C142.306 35.3511 145.056 34.8407 147.879 34.8407C150.364 34.8407 152.744 35.174 155.025 35.8407C157.301 36.5074 159.28 37.5594 160.963 38.9865C162.697 40.4761 163.926 42.1897 164.65 44.1324C165.369 46.0647 165.801 48.1844 165.942 50.4865C166.093 52.7938 166.171 55.2574 166.171 57.8824V77.8824H153.671V72.7574C152.989 74.398 152.004 75.6636 150.713 76.549C149.473 77.3824 148.051 77.9553 146.442 78.2782C144.827 78.6115 143.155 78.7782 141.421 78.7782ZM145.046 69.3407C146.546 69.3407 148.056 68.9969 149.588 68.299C151.322 67.4969 152.473 66.3928 153.046 64.9865C153.614 63.5699 153.926 61.7261 153.983 59.4449L146.317 60.924C144.926 61.174 143.858 61.4553 143.108 61.7574C142.369 62.049 141.733 62.4449 141.192 62.9449C140.843 63.2938 140.567 63.674 140.358 64.0907C140.161 64.5074 140.067 65.0178 140.067 65.6115C140.067 66.9449 140.556 67.9032 141.546 68.4865C142.546 69.0594 143.713 69.3407 145.046 69.3407Z" fill="black"/>
<path d="M195.686 77.8824H185.79L170.249 35.7157H183.499L190.624 59.3615L198.061 35.7157H211.311L195.686 77.8824Z" fill="black"/>
<path d="M222.075 32.8199C220.143 32.8199 218.482 32.2522 217.096 31.1115C215.705 29.9761 215.013 28.4136 215.013 26.424C215.013 24.4397 215.705 22.8719 217.096 21.7157C218.482 20.549 220.143 19.9657 222.075 19.9657C224.002 19.9657 225.664 20.549 227.054 21.7157C228.44 22.8719 229.138 24.4397 229.138 26.424C229.138 28.4136 228.44 29.9761 227.054 31.1115C225.664 32.2522 224.002 32.8199 222.075 32.8199ZM228.325 77.8824H215.825V35.7157H228.325V77.8824Z" fill="black"/>
<path d="M256.952 78.7782C252.587 78.7782 248.733 77.8615 245.389 76.0282C242.04 74.1949 239.436 71.6063 237.577 68.2574C235.712 64.9136 234.785 61.0074 234.785 56.549C234.785 52.2313 235.712 48.4553 237.577 45.2157C239.436 41.9657 242.025 39.424 245.348 37.5907C248.665 35.7574 252.535 34.8407 256.952 34.8407C261.353 34.8407 265.212 35.7574 268.535 37.5907C271.868 39.424 274.457 41.9657 276.306 45.2157C278.165 48.4553 279.098 52.2313 279.098 56.549C279.098 61.0074 278.181 64.898 276.348 68.2157C274.514 71.5386 271.936 74.1272 268.618 75.9865C265.295 77.8511 261.41 78.7782 256.952 78.7782ZM256.952 68.0699C259.769 68.0699 261.999 67.023 263.639 64.924C265.275 62.8147 266.098 60.023 266.098 56.549C266.098 53.273 265.275 50.6063 263.639 48.549C261.999 46.4969 259.769 45.4657 256.952 45.4657C254.17 45.4657 251.931 46.4865 250.223 48.5282C248.514 50.5594 247.66 53.2313 247.66 56.549C247.66 60.0647 248.514 62.8615 250.223 64.9449C251.931 67.0282 254.17 68.0699 256.952 68.0699Z" fill="black"/>
<path d="M290.853 78.7782C288.921 78.7782 287.249 78.0959 285.832 76.7366C284.416 75.3772 283.707 73.7053 283.707 71.7157C283.707 69.8303 284.416 68.2053 285.832 66.8407C287.249 65.4814 288.921 64.7991 290.853 64.7991C292.728 64.7991 294.332 65.4814 295.666 66.8407C297.009 68.2053 297.686 69.8303 297.686 71.7157C297.686 73.648 297.009 75.3095 295.666 76.6949C294.332 78.0803 292.728 78.7782 290.853 78.7782Z" fill="black"/>
<mask id="mask0_6_144" style="mask-type:luminance" maskUnits="userSpaceOnUse" x="234" y="33" width="46" height="47">
<path d="M234.09 33.651H279.945V79.5052H234.09V33.651Z" fill="white"/>
</mask>
<g mask="url(#mask0_6_144)">
<mask id="mask1_6_144" style="mask-type:luminance" maskUnits="userSpaceOnUse" x="234" y="33" width="46" height="47">
<path d="M257.018 33.651C244.356 33.651 234.09 43.9166 234.09 56.5781C234.09 69.2395 244.356 79.5052 257.018 79.5052C269.679 79.5052 279.945 69.2395 279.945 56.5781C279.945 43.9166 269.679 33.651 257.018 33.651Z" fill="white"/>
</mask>
<g mask="url(#mask1_6_144)">
<path d="M234.09 33.651H279.945V79.5052H234.09V33.651Z" fill="#AD3757"/>
</g>
</g>
</svg>
